<?xml version="1.0" encoding="UTF-8"?>
<svg width="30.0003px" height="30.0003px" viewBox="0 0 30.0003 30.0003" version="1.1" xmlns="http://www.w3.org/2000/svg" xmlns:xlink="http://www.w3.org/1999/xlink">
    <title>840D3DB5-E688-4CD6-81CA-F24521025256</title>
    <g id="Page-1" stroke="none" stroke-width="1" fill="none" fill-rule="evenodd">
        <g id="Landing-Screen" transform="translate(-1277, -65)" fill="#000000" fill-rule="nonzero">
            <path d="M1281.57968,90.7896302 C1277.68034,87.0235226 1276.11651,81.4464853 1277.48924,76.202057 C1278.86196,70.9576286 1282.95763,66.8619645 1288.20206,65.4892363 C1293.44649,64.1165082 1299.02352,65.6803444 1302.78963,69.5796834 C1308.4742,75.465352 1308.3929,84.8209169 1302.60691,90.6069093 C1296.82092,96.3929018 1287.46535,96.4741991 1281.57968,90.7896302 Z M1283.69468,88.6746355 C1286.72786,91.7078128 1291.14881,92.8924034 1295.2922,91.7821834 C1299.4356,90.6719635 1302.67196,87.4356019 1303.78218,83.2922047 C1304.8924,79.1488075 1303.70781,74.7278554 1300.67464,71.6946781 C1295.98575,67.0057923 1288.38356,67.0057923 1283.69468,71.6946781 C1279.00579,76.3835639 1279.00579,83.9857498 1283.69468,88.6746355 L1283.69468,88.6746355 Z M1298.54464,75.9396675 L1294.29965,80.1846568 L1298.54464,84.4296462 L1296.42965,86.5446409 L1292.18466,82.2996515 L1287.93967,86.5446409 L1285.82467,84.4296462 L1290.06966,80.1846568 L1285.82467,75.9396675 L1287.93967,73.8246728 L1292.18466,78.0696621 L1296.42965,73.8246728 L1298.54464,75.9396675 Z" id="close-icon"></path>
        </g>
    </g>
</svg>