<?xml version="1.0" encoding="UTF-8"?>
<svg width="16px" height="16px" viewBox="0 0 16 16" version="1.1" xmlns="http://www.w3.org/2000/svg" xmlns:xlink="http://www.w3.org/1999/xlink">
    <title>6DDF8505-50D8-45C0-939A-7FE802CCF411</title>
    <g id="Page-1" stroke="none" stroke-width="1" fill="none" fill-rule="evenodd">
        <g id="Landing-Screen" transform="translate(-157, -129)" fill="#000000" fill-rule="nonzero">
            <path d="M171.466835,145 L167.206055,140.824221 C166.710615,141.228468 166.14086,141.548497 165.496788,141.784308 C164.852717,142.020118 164.167359,142.138024 163.440714,142.138024 C161.640617,142.138024 160.117306,141.502009 158.87078,140.229979 C157.624254,138.957948 157.000661,137.404293 157,135.569012 C157,133.733057 157.623593,132.179402 158.87078,130.908045 C160.117966,129.636689 161.641278,129.000674 163.440714,129 C165.240811,129 166.764123,129.636015 168.010648,130.908045 C169.257174,132.180076 169.880768,133.733731 169.881428,135.569012 C169.881428,136.310131 169.765826,137.009141 169.534621,137.666043 C169.303415,138.322944 168.989637,138.904049 168.593285,139.409357 L173,143.56636 L171.466835,145 Z M163.440714,140.11679 C164.679313,140.11679 165.732287,139.674476 166.599637,138.789849 C167.466986,137.905222 167.900331,136.83161 167.899671,135.569012 C167.899671,134.30574 167.465995,133.231791 166.598646,132.347164 C165.731296,131.462537 164.678652,131.020561 163.440714,131.021234 C162.202115,131.021234 161.149141,131.463548 160.281792,132.348175 C159.414442,133.232802 158.981098,134.306414 158.981757,135.569012 C158.981757,136.832283 159.415433,137.906233 160.282782,138.79086 C161.150132,139.675487 162.202776,140.117463 163.440714,140.11679 Z" id="search-icon"></path>
        </g>
    </g>
</svg>